<?xml version="1.0"?>
<svg id="Layer_2" data-name="Layer 2" xmlns="http://www.w3.org/2000/svg" viewBox="0 0 101.38 27.1" fill="#1A1A1A">
  <defs></defs>
  <g id="Layer_1" data-name="Layer 1">
    <g>
      <path class="cls-1" d="M0,10.36l1.19-2.7c1.04.61,2.42,1,3.63,1,1.05,0,1.43-.22,1.43-.6C6.25,6.69.17,7.8.17,3.71.17,1.66,1.89,0,5.3,0c1.48,0,3,.31,4.15.96l-1.12,2.69c-1.08-.55-2.11-.82-3.06-.82-1.08,0-1.43.31-1.43.69,0,1.32,6.08.22,6.08,4.27,0,2.01-1.71,3.71-5.12,3.71-1.84,0-3.69-.46-4.79-1.13Z"></path>
      <path class="cls-1" d="M13.25,3.12h-3.22V.25h10.15v2.87h-3.22v8.12h-3.71V3.12Z"></path>
      <path class="cls-1" d="M24.2.25h3.65l4.81,10.99h-3.83l-.74-1.92h-4.18l-.74,1.92h-3.77L24.2.25ZM27.07,6.66l-1.07-2.76-1.07,2.76h2.14Z"></path>
      <path class="cls-1" d="M33.26.25h3.05l4.18,4.99V.25h3.61v10.99h-3.05l-4.18-4.99v4.99h-3.61V.25Z"></path>
      <path class="cls-1" d="M45.46,5.75c0-3.38,2.59-5.75,6.13-5.75,2.15,0,3.85.79,4.93,2.2l-2.34,2.09c-.64-.82-1.41-1.29-2.4-1.29-1.54,0-2.58,1.07-2.58,2.75s1.04,2.75,2.58,2.75c.99,0,1.76-.47,2.4-1.29l2.34,2.09c-1.08,1.41-2.78,2.2-4.93,2.2-3.54,0-6.13-2.37-6.13-5.75Z"></path>
      <path class="cls-1" d="M57.48.25h5.14c3.38,0,5.17,1.6,5.17,4.15,0,1.59-.75,2.78-2.07,3.45l2.31,3.39h-3.96l-1.87-2.76h-1.01v2.76h-3.71V.25ZM62.54,5.68c1.02,0,1.51-.49,1.51-1.29s-.49-1.29-1.51-1.29h-1.35v2.58h1.35Z"></path>
      <path class="cls-1" d="M72.8.25h3.65l4.81,10.99h-3.83l-.74-1.92h-4.18l-.74,1.92h-3.77L72.8.25ZM75.66,6.66l-1.07-2.76-1.07,2.76h2.14Z"></path>
      <path class="cls-1" d="M81.86.25h8.94v2.8h-5.23v1.88h4.59v2.8h-4.59v3.52h-3.71V.25Z"></path>
      <path class="cls-1" d="M94.45,3.12h-3.22V.25h10.15v2.87h-3.22v8.12h-3.71V3.12Z"></path>
      <path class="cls-1" d="M0,21.21c0-3.46,2.66-5.89,6.29-5.89,2.21,0,3.95.81,5.06,2.25l-2.4,2.14c-.66-.84-1.45-1.32-2.47-1.32-1.58,0-2.64,1.1-2.64,2.82s1.06,2.82,2.64,2.82c1.02,0,1.81-.48,2.47-1.32l2.4,2.14c-1.11,1.45-2.85,2.25-5.06,2.25-3.63,0-6.29-2.43-6.29-5.89Z"></path>
      <path class="cls-1" d="M11.48,21.21c0-3.41,2.69-5.89,6.37-5.89s6.37,2.48,6.37,5.89-2.69,5.89-6.37,5.89-6.37-2.48-6.37-5.89ZM20.37,21.21c0-1.76-1.13-2.82-2.53-2.82s-2.53,1.06-2.53,2.82,1.13,2.82,2.53,2.82,2.53-1.06,2.53-2.82Z"></path>
      <path class="cls-1" d="M25.6,15.57h9.17v2.87h-5.37v1.93h4.71v2.87h-4.71v3.61h-3.8v-11.27Z"></path>
      <path class="cls-1" d="M35.98,15.57h9.17v2.87h-5.37v1.93h4.71v2.87h-4.71v3.61h-3.8v-11.27Z"></path>
      <path class="cls-1" d="M46.36,15.57h9.17v2.87h-5.43v1.32h4.77v2.74h-4.77v1.48h5.64v2.87h-9.38v-11.27Z"></path>
      <path class="cls-1" d="M57.21,15.57h9.17v2.87h-5.43v1.32h4.77v2.74h-4.77v1.48h5.64v2.87h-9.38v-11.27Z"></path>
      <path class="cls-1" d="M72.44,21.21c0-3.46,2.66-5.89,6.29-5.89,2.21,0,3.95.81,5.06,2.25l-2.4,2.14c-.66-.84-1.45-1.32-2.47-1.32-1.58,0-2.64,1.1-2.64,2.82s1.06,2.82,2.64,2.82c1.02,0,1.81-.48,2.47-1.32l2.4,2.14c-1.11,1.45-2.85,2.25-5.06,2.25-3.63,0-6.29-2.43-6.29-5.89Z"></path>
      <path class="cls-1" d="M83.92,21.21c0-3.41,2.69-5.89,6.37-5.89s6.37,2.48,6.37,5.89-2.69,5.89-6.37,5.89-6.37-2.48-6.37-5.89ZM92.82,21.21c0-1.76-1.13-2.82-2.53-2.82s-2.53,1.06-2.53,2.82,1.13,2.82,2.53,2.82,2.53-1.06,2.53-2.82Z"></path>
      <path class="cls-1" d="M97.12,24.91c0-1.24.92-2.06,2.13-2.06s2.13.82,2.13,2.06-.92,2.09-2.13,2.09-2.13-.87-2.13-2.09Z"></path>
    </g>
  </g>
</svg>